<?xml version="1.0" encoding="utf-8"?>
<!-- Generator: Adobe Illustrator 20.1.0, SVG Export Plug-In . SVG Version: 6.00 Build 0)  -->
<svg version="1.1" id="Layer_1" xmlns="http://www.w3.org/2000/svg" xmlns:xlink="http://www.w3.org/1999/xlink" x="0px" y="0px"
	 viewBox="0 0 100 36" style="enable-background:new 0 0 100 36;" xml:space="preserve">
<style type="text/css">
	.st0{fill:#4167B0;}
	.st1{fill:#808080;}
	.st2{fill:#CB9831;}
</style>
<path class="st0" d="M42.3,2.4C37.7,9.6,33.8,17.2,30.7,25c-3.7-7-6.1-14.5-7.4-22.1c-0.3-1.8-3.9-2.2-4.7-0.5
	c-4.7,8.9-9.5,18-11.9,27.6c-0.3-0.4-0.5-0.8-0.7-1.1c-1.2-1.6-2.4-3.3-3.7-4.9c-0.9-1.1-2.8,0-1.9,1.1c1.6,2.2,3.3,4.4,4.9,6.6
	c1,1.3,1.8,3,3.2,3.9c0.4,0.3,1,0.1,1.4-0.2c1.5-1.3,2.6-3.3,3.9-4.8c1.8-1.9,3.8-3.7,5.9-5.2c1.2-0.8,0-2.8-1.1-1.9
	c-2,1.4-3.8,3-5.6,4.7c-0.3,0.3-0.5,0.5-0.7,0.8c1.7-6.3,4.5-12.3,7.5-18.2c1.9,7.4,5.1,14.5,9.2,21.2c1.1,1.7,4.1,1.2,4.7-0.5
	c3.1-9.4,7.5-18.4,13.1-27C48.4,2.1,43.9-0.1,42.3,2.4z"/>
<path class="st1" d="M57.5,30.3C54,21.2,50.5,12,47.1,2.9c-0.4-1.1-1.8-1.8-3.2-1.5c-1.3,0.3-2.2,1.6-1.8,2.7
	c3.5,9.1,7,18.3,10.4,27.4c0.4,1.1,1.8,1.8,3.2,1.5C57,32.7,58,31.5,57.5,30.3z"/>
<path class="st2" d="M96.1,8c-0.6-1.2-1.1-3.3-1.9-4.9c0-0.1-0.1-0.1-0.1-0.2c-0.4-0.9-0.9-1.7-1.5-2.2C91.7,0,91,0.3,90.1,0.9
	C87,3,84.7,5.2,81.2,6.7c-1.3,0.6-0.7,2.7,0.6,2.2c1.7-0.7,3.3-1.5,4.8-2.4c0.5-0.3,1.1-0.7,1.6-1.1c-2.7,5.9-5.4,11.9-7.6,18
	c-2.5-6.3-5-12.7-7.6-19c-0.9-2.1-4-2-5,0c-4,8.3-8.7,16.4-14.1,24.2c-1.9,0.6-2,2.9-0.5,3.8c1.1,0.9,3.1,1.1,4.1-0.3
	c4.8-6.8,9-13.8,12.7-21c2.7,6.8,5.4,13.5,8.1,20.3c0.8,2,4.3,2.2,5,0c2.5-8.3,5.9-16.3,9.6-24.3c1.1,2.7,2.7,5.3,3.9,7.7
	c0.5,1.1,2,0.5,2.1-0.6C99.1,11.9,97,10.1,96.1,8z"/>
</svg>
